<?xml version="1.0" encoding="UTF-8"?>
<!DOCTYPE svg PUBLIC "-//W3C//DTD SVG 1.1//EN" "http://www.w3.org/Graphics/SVG/1.1/DTD/svg11.dtd">
<svg xmlns="http://www.w3.org/2000/svg" xmlns:xlink="http://www.w3.org/1999/xlink" version="1.1">
  <path id="window-close" d="M13.46,12L19,17.54V19H17.54L12,13.46L6.46,19H5V17.54L10.54,12L5,6.46V5H6.46L12,10.54L17.54,5H19V6.46L13.46,12Z" />
  <path id="window-maximize" d="M4,4H20V20H4V4M6,8V18H18V8H6Z" />
  <path id="window-restore" d="M4,8H8V4H20V16H16V20H4V8M16,8V14H18V6H10V8H16M6,12V18H14V12H6Z" />
  <path id="minimize" d="M20,14H4V10H20" />
  <path id="add" d="M19,13H13V19H11V13H5V11H11V5H13V11H19V13Z" />
</svg>
